<?xml version="1.0" encoding="UTF-8"?>
<!--Generator: Apple Native CoreSVG 326-->
<!DOCTYPE svg
PUBLIC "-//W3C//DTD SVG 1.1//EN"
       "http://www.w3.org/Graphics/SVG/1.1/DTD/svg11.dtd">
<svg version="1.1" xmlns="http://www.w3.org/2000/svg" xmlns:xlink="http://www.w3.org/1999/xlink" viewBox="0 0 222.562 222.982">
 <g>
  <rect height="222.982" opacity="0" width="222.562" x="0" y="0"/>
  <path d="M84.5626 222.982C91.0778 222.982 96.0484 220.341 99.6123 215.14L218.896 30.3711C221.501 26.4122 222.562 22.9194 222.562 19.613C222.562 10.799 216.233 4.6258 207.295 4.6258C201.175 4.6258 197.398 6.80488 193.715 12.7031L84.0743 185.712L28.2795 115.889C24.7112 111.313 20.9299 109.315 15.4354 109.315C6.46616 109.315 0 115.653 0 124.431C0 128.306 1.2871 131.905 4.58454 135.815L69.557 215.503C73.8044 220.661 78.3935 222.982 84.5626 222.982Z" fill="black" fill-opacity="0.85"/>
 </g>
</svg>
