<?xml version="1.0" encoding="UTF-8"?>
<!--Generator: Apple Native CoreSVG 326-->
<!DOCTYPE svg
PUBLIC "-//W3C//DTD SVG 1.1//EN"
       "http://www.w3.org/Graphics/SVG/1.1/DTD/svg11.dtd">
<svg version="1.1" xmlns="http://www.w3.org/2000/svg" xmlns:xlink="http://www.w3.org/1999/xlink" viewBox="0 0 162.002 221.506">
 <g>
  <rect height="221.506" opacity="0" width="162.002" x="0" y="0"/>
  <path d="M162.002 110.704C161.939 106.133 160.306 102.454 156.734 99.0104L58.8586 4.19841C56.0404 1.38026 52.6408 0 48.5401 0C40.3075 0 33.6506 6.46167 33.6506 14.6987C33.6506 18.7018 35.3148 22.4785 38.2837 25.3854L126.714 110.642L38.2837 195.925C35.3459 198.863 33.6506 202.511 33.6506 206.643C33.6506 214.88 40.3075 221.439 48.5401 221.439C52.5787 221.439 56.0404 219.993 58.8586 217.21L156.734 122.398C160.337 118.857 162.002 115.147 162.002 110.704Z" fill="black"/>
 </g>
</svg>
