<?xml version="1.0" encoding="UTF-8"?>
<!--Generator: Apple Native CoreSVG 326-->
<!DOCTYPE svg
PUBLIC "-//W3C//DTD SVG 1.1//EN"
       "http://www.w3.org/Graphics/SVG/1.1/DTD/svg11.dtd">
<svg version="1.1" xmlns="http://www.w3.org/2000/svg" xmlns:xlink="http://www.w3.org/1999/xlink" viewBox="0 0 178.811 255.309">
 <g>
  <rect height="255.309" opacity="0" width="178.811" x="0" y="0"/>
  <path d="M89.4053 0C84.8653 0 81.022 1.92167 77.414 5.46753L5.00581 75.0127C2.03689 77.9195 0 81.563 0 85.9302C0 94.5043 6.96303 100.722 14.7653 100.722C18.4088 100.722 22.3143 99.5726 25.6207 96.3639L89.4053 33.9464L153.159 96.3639C156.496 99.506 160.402 100.722 164.014 100.722C171.848 100.722 178.811 94.5043 178.811 85.9302C178.811 81.563 176.707 77.9195 173.774 75.0127L101.366 5.46753C97.7576 1.92167 93.9143 0 89.4053 0ZM89.4053 255.145C93.9143 255.145 97.7576 253.29 101.366 249.744L173.774 180.101C176.707 177.194 178.811 173.582 178.811 169.25C178.811 160.609 171.848 154.489 164.014 154.489C160.402 154.489 156.496 155.608 153.159 158.75L89.4053 221.198L25.6207 158.75C22.3143 155.541 18.4088 154.489 14.7653 154.489C6.96303 154.489 0 160.609 0 169.25C0 173.582 2.03689 177.194 5.00581 180.101L77.414 249.744C81.022 253.29 84.8653 255.145 89.4053 255.145Z" fill="black"/>
 </g>
</svg>
