<?xml version="1.0" encoding="UTF-8"?>
<!--Generator: Apple Native CoreSVG 326-->
<!DOCTYPE svg
PUBLIC "-//W3C//DTD SVG 1.1//EN"
       "http://www.w3.org/Graphics/SVG/1.1/DTD/svg11.dtd">
<svg version="1.1" xmlns="http://www.w3.org/2000/svg" xmlns:xlink="http://www.w3.org/1999/xlink" viewBox="0 0 273.633 273.531">
 <g>
  <rect height="273.531" opacity="0" width="273.633" x="0" y="0"/>
  <path d="M123.995 273.469L149.607 273.469C160.029 273.469 168.143 267.069 170.442 257.028L175.574 234.961L179.357 233.634L198.578 245.469C207.384 250.879 217.602 249.623 224.983 242.242L242.655 224.566C250.196 217.025 251.332 206.843 245.921 198.227L233.953 179.068L235.281 175.418L257.255 170.287C267.197 167.925 273.633 159.714 273.633 149.385L273.633 124.51C273.633 114.248 267.295 106.103 257.255 103.675L235.445 98.3791L234.02 94.5962L245.988 75.5034C251.43 66.7904 250.36 56.6084 242.721 49.0982L225.05 31.3914C217.766 24.1076 207.549 22.6562 198.742 28.098L179.521 39.9328L175.574 38.441L170.442 16.4406C168.143 6.33377 160.029 0 149.607 0L123.995 0C113.604 0 105.459 6.39588 103.16 16.4406L98.0595 38.441L94.0148 39.9328L74.8599 28.098C66.0847 22.6873 55.8671 24.1076 48.5834 31.3914L30.8455 49.0982C23.2732 56.6084 22.2035 66.7904 27.6453 75.5034L39.6133 94.5962L38.1215 98.3791L16.3474 103.675C6.30721 106.134 0 114.248 0 124.51L0 149.385C0 159.714 6.40486 167.925 16.3474 170.287L38.2857 175.418L39.6799 179.068L27.7119 198.227C22.3012 206.843 23.4375 217.025 30.9121 224.566L48.65 242.242C56.0314 249.623 66.249 250.879 75.0241 245.469L94.179 233.634L98.0595 234.961L103.16 257.028C105.459 267.069 113.604 273.469 123.995 273.469ZM127.399 251.082C125.01 251.082 123.763 249.906 123.337 247.744L116.043 217.04C108.196 215.18 100.584 212.073 94.2853 208.141L67.3943 224.782C65.5919 225.928 63.6919 225.861 62.0228 224.09L49.0288 211.096C47.262 209.426 47.2885 207.726 48.4383 205.791L65.1065 178.9C61.6003 172.735 58.3245 165.216 56.4645 157.43L25.6938 150.235C23.5319 149.808 22.3555 148.561 22.3555 146.075L22.3555 127.723C22.3555 125.237 23.4653 124.087 25.6938 123.594L56.3979 116.332C58.32 108.284 61.8001 100.539 64.9423 94.7335L48.3717 67.9091C47.1243 65.907 47.0977 64.1712 48.8645 62.471L61.9562 49.5747C63.6919 47.9366 65.33 47.7057 67.3943 48.9176L94.121 65.3594C99.8292 61.9063 108.143 58.4132 116.11 56.429L123.337 25.7249C123.763 23.4964 125.01 22.4177 127.399 22.4177L146.204 22.4177C148.69 22.4177 149.87 23.4298 150.297 25.7249L157.59 56.5933C165.695 58.4487 173.107 61.7866 179.379 65.426L206.079 49.0108C208.21 47.7989 209.751 47.9676 211.584 49.6368L224.707 62.5331C226.376 64.2333 226.38 65.9691 225.102 68.0023L208.593 94.7335C211.869 100.508 215.313 108.218 217.204 116.27L247.939 123.594C250.168 124.087 251.247 125.237 251.247 127.723L251.247 146.075C251.247 148.561 250.101 149.808 247.939 150.235L217.107 157.461C215.278 165.185 212.069 172.859 208.429 178.9L225.035 205.729C226.216 207.664 226.212 209.333 224.542 211.002L211.517 223.996C209.751 225.83 207.979 225.865 206.079 224.72L179.312 208.141C172.957 212.073 165.846 215.087 157.59 217.04L150.297 247.744C149.87 249.973 148.69 251.082 146.204 251.082ZM136.819 184.422C163.164 184.422 184.524 163.062 184.524 136.717C184.524 110.274 163.164 88.9804 136.819 88.9804C110.376 88.9804 89.0159 110.274 89.0159 136.717C89.0159 163.062 110.376 184.422 136.819 184.422ZM136.819 163.655C121.858 163.655 109.85 151.58 109.85 136.717C109.85 121.756 121.858 109.748 136.819 109.748C151.682 109.748 163.757 121.756 163.757 136.717C163.757 151.58 151.682 163.655 136.819 163.655Z" fill="black"/>
 </g>
</svg>
