<?xml version="1.0" encoding="UTF-8"?>
<!--Generator: Apple Native CoreSVG 326-->
<!DOCTYPE svg
PUBLIC "-//W3C//DTD SVG 1.1//EN"
       "http://www.w3.org/Graphics/SVG/1.1/DTD/svg11.dtd">
<svg version="1.1" xmlns="http://www.w3.org/2000/svg" xmlns:xlink="http://www.w3.org/1999/xlink" viewBox="0 0 260.077 260.242">
 <g>
  <rect height="260.242" opacity="0" width="260.077" x="0" y="0"/>
  <path d="M30.5374 185.638L44.7062 158.526C48.2929 151.645 51.8841 147.725 55.6796 147.725C59.3775 147.725 63.4304 151.419 69.4585 159.467C81.5189 174.812 89.1716 181.923 96.913 181.923C104.708 181.923 113.905 170.866 113.905 162.792C113.905 157.722 106.669 152.973 106.296 150.229C106.203 148.946 107.455 148.192 109.404 148.192C128.066 148.192 143.641 132.73 143.641 120.684C143.641 109.507 131.434 100.886 131.434 97.4368C131.434 96.6156 131.994 95.9896 132.748 95.9896C133.796 95.9896 135.177 97.1349 138.222 99.3544C152.191 110.416 159.125 104.317 160.35 97.1349C160.864 94.1075 162.56 91.5239 169.103 88.2568C182.837 81.257 195.297 69.4982 195.297 59.9589C195.297 47.3792 178.252 42.0658 178.252 38.9894C178.252 37.1249 182.633 35.1538 190.672 33.1427L187.534 20.5548C173.547 24.2036 163.951 30.7331 163.951 38.2792C163.951 48.5997 182.417 54.2013 182.417 59.9589C182.417 65.4366 172.016 71.9845 164.088 76.2503C150.762 83.6497 151.131 87.7689 149.826 91.4271C147.224 96.6078 141.174 85.146 130.596 85.146C124.169 85.146 119.397 89.4605 119.397 95.7015C119.397 105.294 130.663 114.167 130.663 120.684C130.663 128.438 121.719 136.376 105.853 136.376C97.1042 136.376 92.1283 140.473 92.1283 147.429C92.1283 154.025 100.443 160.301 100.443 163.164C100.443 165.295 98.489 167.977 97.1394 167.977C94.6224 167.977 88.6343 162.81 79.8138 151.442C71.3933 140.482 63.9403 134.782 56.3898 134.782C46.4243 134.782 39.6019 142.484 34.999 150.887L22.6232 173.628ZM184.663 236.695L195.018 228.768C189.416 221.403 182.354 210.311 167.186 210.311C157.767 210.311 156.182 213.245 149.883 213.245C146.301 213.245 144.298 210.16 142.634 203.204C141.071 196.745 140.672 192.843 144.148 191.329C148.684 189.624 163.954 187.911 169.228 171.7C172.85 160.731 176.188 156.678 182.079 156.678C192.884 156.678 192.062 168.082 203.914 168.082C209.698 168.082 212.632 165.641 216.654 165.641C222.017 165.641 225.75 171.171 226.869 184.551L239.776 179.22C237.686 162.405 229.625 152.693 218.35 152.693C215.234 152.693 211.621 153.248 208.26 154.42C204.58 155.636 203.475 155.241 200.456 151.801C195.218 145.91 190.704 143.7 183.513 143.7C170.596 143.7 162.597 150.096 156.671 167.914C155.166 172.819 153.133 174.329 144.423 177.653L139.177 179.607C129.131 183.411 126.335 190.69 129.819 206.085C132.976 219.361 139.51 226.286 148.773 226.286C156.941 226.286 161.833 223.352 167.186 223.352C174.986 223.223 178.648 228.31 184.663 236.695ZM159.293 122.663C167.306 122.663 170.919 115.432 180.005 112.795C185.998 111.038 189.159 104.881 189.159 99.705C189.159 95.4702 187.072 91.857 182.513 91.857C177.662 91.857 173.134 95.6656 170.204 101.884C168.575 105.533 165.907 107.291 159.293 109.116C154.082 110.678 152.226 112.6 152.226 116.542C152.226 120.808 155.485 122.663 159.293 122.663ZM122.97 179.606C130.068 179.606 136.939 171.465 136.939 164.039C136.939 155.117 133.197 150.882 128.962 150.882C124.239 150.882 121.243 156.386 121.243 164.856C121.243 169.672 116.977 169.867 116.977 174.754C116.977 177.715 119.356 179.606 122.97 179.606ZM101.654 202.742C106.994 202.742 110.478 199.941 110.478 195.351C110.478 191.897 107.775 189.718 103.997 189.718C89.1136 189.718 88.4966 181.248 81.2655 181.248C77.2927 181.248 74.4607 183.592 74.4607 187.046C74.4607 189.847 77.2927 191.897 80.9726 191.897C88.9849 191.897 85.2073 202.742 101.654 202.742ZM130.005 260.077C201.804 260.077 260.077 201.84 260.077 130.072C260.077 58.2734 201.804 0 130.005 0C58.2068 0 0 58.2734 0 130.072C0 201.84 58.2068 260.077 130.005 260.077ZM130.005 240.017C69.298 240.017 20.0608 190.748 20.0608 130.072C20.0608 69.298 69.298 20.0298 130.005 20.0298C190.779 20.0298 240.017 69.298 240.017 130.072C240.017 190.748 190.779 240.017 130.005 240.017Z" fill="black" fill-opacity="0.85"/>
 </g>
</svg>
