<?xml version="1.0" encoding="UTF-8"?>
<!--Generator: Apple Native CoreSVG 326-->
<!DOCTYPE svg
PUBLIC "-//W3C//DTD SVG 1.1//EN"
       "http://www.w3.org/Graphics/SVG/1.1/DTD/svg11.dtd">
<svg version="1.1" xmlns="http://www.w3.org/2000/svg" xmlns:xlink="http://www.w3.org/1999/xlink" viewBox="0 0 306.678 270.343">
 <g>
  <rect height="270.343" opacity="0" width="306.678" x="0" y="0"/>
  <path d="M117.188 250.95L189.49 250.95L189.49 171.785C189.49 166.036 185.788 162.366 180.07 162.366L126.705 162.366C120.988 162.366 117.188 166.036 117.188 171.785ZM12.7864 138.405C16.4614 138.405 19.9276 136.532 22.8835 133.993L147.454 29.4828C149.291 27.9028 151.355 27.1305 153.29 27.1305C155.323 27.1305 157.356 27.9028 159.224 29.4828L283.794 133.993C286.75 136.532 290.119 138.405 293.891 138.405C301.734 138.405 306.678 132.995 306.678 126.493C306.678 122.894 304.983 119.206 301.672 116.41L171.332 7.06149C165.753 2.35233 159.539 0 153.29 0C147.139 0 140.925 2.35233 135.346 7.06149L5.00622 116.41C1.66425 119.206 0 122.894 0 126.493C0 132.995 4.87751 138.405 12.7864 138.405ZM233.206 66.3102L268.687 96.0566L268.687 36.7326C268.687 31.384 265.185 27.9795 259.867 27.9795L242.154 27.9795C236.806 27.9795 233.206 31.384 233.206 36.7326ZM68.236 270.148L238.442 270.148C257.586 270.148 268.687 259.145 268.687 240.666L268.687 100.322L244.011 83.3102L244.011 232.772C244.011 241.068 239.643 245.503 231.377 245.503L75.2342 245.503C67.0041 245.503 62.6672 241.068 62.6672 232.772L62.6672 83.4434L37.9912 100.322L37.9912 240.666C37.9912 259.211 49.0921 270.148 68.236 270.148Z" fill="black"/>
 </g>
</svg>
