<?xml version="1.0" encoding="UTF-8"?>
<!--Generator: Apple Native CoreSVG 326-->
<!DOCTYPE svg
PUBLIC "-//W3C//DTD SVG 1.1//EN"
       "http://www.w3.org/Graphics/SVG/1.1/DTD/svg11.dtd">
<svg version="1.1" xmlns="http://www.w3.org/2000/svg" xmlns:xlink="http://www.w3.org/1999/xlink" viewBox="0 0 270.138 272.254">
 <g>
  <rect height="272.254" opacity="0" width="270.138" x="0" y="0"/>
  <path d="M139.499 82.0666L120.756 100.845C136.156 101.804 147.382 106.665 155.444 114.793C176.849 136.162 176.845 166.428 155.471 187.736L113.395 229.78C91.9542 251.154 61.8217 251.257 40.4832 229.918C19.0115 208.446 19.1136 178.216 40.4566 156.94L62.6634 134.667C58.8997 125.883 57.4664 114.703 59.9825 104.895L23.1429 141.61C-7.64911 172.247-7.82236 216 23.2716 247.063C54.3655 278.188 98.0611 277.891 128.724 247.192L172.785 203.132C203.514 172.335 203.75 128.675 172.687 97.6123C164.949 89.9412 154.473 84.206 139.499 82.0666ZM130.639 188.257L149.315 169.447C133.981 168.519 122.755 163.628 114.693 155.499C93.2883 134.161 93.2928 103.864 114.667 82.5876L156.743 40.5427C178.183 19.1686 208.316 19.0665 229.654 40.3739C251.126 61.8767 251.024 92.0757 229.681 113.352L207.474 135.625C211.238 144.44 212.671 155.589 210.155 165.428L246.995 128.713C277.787 98.0761 277.893 54.3228 246.866 23.2599C215.705-7.86503 172.076-7.59862 141.413 23.1312L97.353 67.1914C66.6232 97.8902 66.3878 141.648 97.4507 172.711C105.188 180.382 115.598 186.086 130.639 188.257Z" fill="black"/>
 </g>
</svg>
