<?xml version="1.0" encoding="UTF-8"?>
<!--Generator: Apple Native CoreSVG 326-->
<!DOCTYPE svg
PUBLIC "-//W3C//DTD SVG 1.1//EN"
       "http://www.w3.org/Graphics/SVG/1.1/DTD/svg11.dtd">
<svg version="1.1" xmlns="http://www.w3.org/2000/svg" xmlns:xlink="http://www.w3.org/1999/xlink" viewBox="0 0 260.55 191.312">
 <g>
  <rect height="191.312" opacity="0" width="260.55" x="0" y="0"/>
  <path d="M77.3303 184.982L248.873 184.982C255.371 184.982 260.55 179.621 260.55 173.154C260.55 166.594 255.433 161.424 248.873 161.424L77.3303 161.424C70.8016 161.424 65.7864 166.687 65.7864 173.154C65.7864 179.527 70.8327 184.982 77.3303 184.982Z" fill="black"/>
  <path d="M18.1269 191.312C28.1446 191.312 36.2848 183.172 36.2848 173.154C36.2848 163.136 28.1446 155.027 18.1269 155.027C8.14021 155.027 0 163.136 0 173.154C0 183.172 8.14021 191.312 18.1269 191.312Z" fill="black"/>
  <path d="M77.3303 107.404L248.873 107.404C255.371 107.404 260.55 102.109 260.55 95.6737C260.55 89.114 255.433 83.8769 248.873 83.8769L77.3303 83.8769C70.8016 83.8769 65.7864 89.2072 65.7864 95.6737C65.7864 102.047 70.8327 107.404 77.3303 107.404Z" fill="black"/>
  <path d="M18.1269 113.832C28.1446 113.832 36.2848 105.691 36.2848 95.6737C36.2848 85.656 28.1446 77.5468 18.1269 77.5468C8.14021 77.5468 0 85.656 0 95.6737C0 105.691 8.14021 113.832 18.1269 113.832Z" fill="black"/>
  <path d="M77.3303 29.9237L248.873 29.9237C255.371 29.9237 260.55 24.5624 260.55 18.1269C260.55 11.5672 255.433 6.39669 248.873 6.39669L77.3303 6.39669C70.8016 6.39669 65.7864 11.6603 65.7864 18.1269C65.7864 24.5003 70.8327 29.9237 77.3303 29.9237Z" fill="black"/>
  <path d="M18.1269 36.2538C28.1446 36.2538 36.2848 28.1446 36.2848 18.1269C36.2848 8.10915 28.1446 0 18.1269 0C8.14021 0 0 8.10915 0 18.1269C0 28.1446 8.14021 36.2538 18.1269 36.2538Z" fill="black"/>
 </g>
</svg>
