<?xml version="1.0" encoding="UTF-8"?>
<!--Generator: Apple Native CoreSVG 326-->
<!DOCTYPE svg
PUBLIC "-//W3C//DTD SVG 1.1//EN"
       "http://www.w3.org/Graphics/SVG/1.1/DTD/svg11.dtd">
<svg version="1.1" xmlns="http://www.w3.org/2000/svg" xmlns:xlink="http://www.w3.org/1999/xlink" viewBox="0 0 254.786 256.981">
 <g>
  <rect height="256.981" opacity="0" width="254.786" x="0" y="0"/>
  <path d="M0 107.259C0 166.503 47.9917 214.569 107.259 214.569C126.172 214.569 143.776 209.431 158.989 200.731L207.304 248.994C212.58 254.368 219.803 256.906 227.198 256.906C242.971 256.906 254.786 244.78 254.786 229.174C254.786 221.905 252.249 214.975 246.846 209.55L199.122 161.682C208.897 145.953 214.592 127.298 214.592 107.259C214.592 47.9917 166.526 0 107.259 0C47.9917 0 0 47.9917 0 107.259ZM37.0627 107.259C37.0627 68.5699 68.5699 37.0627 107.259 37.0627C146.022 37.0627 177.432 68.5699 177.432 107.259C177.432 145.925 146.022 177.432 107.259 177.432C68.5699 177.432 37.0627 145.925 37.0627 107.259Z" fill="white" fill-opacity="0.85"/>
 </g>
</svg>
