<?xml version="1.0" encoding="UTF-8"?>
<!--Generator: Apple Native CoreSVG 326-->
<!DOCTYPE svg
PUBLIC "-//W3C//DTD SVG 1.1//EN"
       "http://www.w3.org/Graphics/SVG/1.1/DTD/svg11.dtd">
<svg version="1.1" xmlns="http://www.w3.org/2000/svg" xmlns:xlink="http://www.w3.org/1999/xlink" viewBox="0 0 248.515 250.796">
 <g>
  <rect height="250.796" opacity="0" width="248.515" x="0" y="0"/>
  <path d="M0 102.337C0 158.75 45.8576 204.639 102.337 204.639C123.037 204.639 142.165 198.282 158.074 187.534L215.753 245.249C219.374 248.968 224.376 250.765 229.506 250.765C240.575 250.765 248.515 242.297 248.515 231.526C248.515 226.391 246.717 221.683 243.1 217.999L185.839 160.506C197.66 144.211 204.706 124.075 204.706 102.337C204.706 45.8576 158.817 0 102.337 0C45.8576 0 0 45.8576 0 102.337ZM26.0873 102.337C26.0873 60.2948 60.2948 26.0873 102.337 26.0873C144.411 26.0873 178.521 60.2948 178.521 102.337C178.521 144.313 144.411 178.521 102.337 178.521C60.2948 178.521 26.0873 144.313 26.0873 102.337Z" fill="black"/>
 </g>
</svg>
