<?xml version="1.0" encoding="UTF-8"?>
<!--Generator: Apple Native CoreSVG 326-->
<!DOCTYPE svg
PUBLIC "-//W3C//DTD SVG 1.1//EN"
       "http://www.w3.org/Graphics/SVG/1.1/DTD/svg11.dtd">
<svg version="1.1" xmlns="http://www.w3.org/2000/svg" xmlns:xlink="http://www.w3.org/1999/xlink" viewBox="0 0 260.077 260.242">
 <g>
  <rect height="260.242" opacity="0" width="260.077" x="0" y="0"/>
  <path d="M130.005 260.077C201.737 260.077 260.077 201.706 260.077 130.072C260.077 58.34 201.737 0 130.005 0C58.34 0 0 58.34 0 130.072C0 201.706 58.34 260.077 130.005 260.077Z" fill="white" fill-opacity="0.2125"/>
  <path d="M130.005 235.104C72.1737 235.104 25.3996 188.33 25.3996 130.498C25.3996 72.6665 72.1737 25.8924 130.005 25.8924ZM130.005 260.077C201.737 260.077 260.077 201.706 260.077 130.072C260.077 58.34 201.737 0 130.005 0C58.34 0 0 58.34 0 130.072C0 201.706 58.34 260.077 130.005 260.077Z" fill="white" fill-opacity="0.85"/>
 </g>
</svg>
