<?xml version="1.0" encoding="UTF-8"?>
<!--Generator: Apple Native CoreSVG 326-->
<!DOCTYPE svg
PUBLIC "-//W3C//DTD SVG 1.1//EN"
       "http://www.w3.org/Graphics/SVG/1.1/DTD/svg11.dtd">
<svg version="1.1" xmlns="http://www.w3.org/2000/svg" xmlns:xlink="http://www.w3.org/1999/xlink" viewBox="0 0 295.689 292.514">
 <g>
  <rect height="292.514" opacity="0" width="295.689" x="0" y="0"/>
  <path d="M246.964 148.209C249.481 148.209 251.252 146.5 251.607 143.855C255.881 110.505 257.053 109.804 291.078 104.255C293.98 103.802 295.689 102.226 295.689 99.6122C295.689 97.1267 293.98 95.4845 291.562 95.0007C257.253 88.2404 255.881 88.7242 251.607 55.4009C251.252 52.7556 249.481 51.0158 246.964 51.0158C244.514 51.0158 242.677 52.7556 242.388 55.3033C237.887 89.199 237.11 89.9757 202.398 95.0007C200.045 95.3248 198.239 97.1267 198.239 99.6122C198.239 102.129 200.014 103.771 202.367 104.255C237.172 111.148 237.789 110.793 242.388 144.081C242.677 146.5 244.545 148.209 246.964 148.209ZM186.369 61.7935C187.918 61.7935 188.947 60.7328 189.205 59.1838C192.729 38.3074 192.796 37.7435 214.56 33.7662C216.233 33.4777 217.299 32.5101 217.299 30.9301C217.299 29.2834 216.233 28.3514 214.684 28.0273C192.769 23.5662 193.302 23.131 189.205 2.64081C188.947 1.06074 187.918 0 186.369 0C184.789 0 183.825 1.06074 183.532 2.60975C179.377 23.3795 180.106 23.9078 158.119 28.0273C156.57 28.3203 155.474 29.2834 155.474 30.9301C155.474 32.5101 156.539 33.4777 158.088 33.7662C180.106 38.1963 179.879 38.4627 183.532 59.2148C183.825 60.7328 184.789 61.7935 186.369 61.7935Z" fill="black" fill-opacity="0.85"/>
  <path d="M150.264 272.267C194.771 272.267 236.465 247.472 254.735 206.382C257.779 199.455 256.852 194.031 253.678 190.947C250.7 187.995 245.508 187.352 239.725 189.784C230.181 193.748 218.476 195.994 204.413 195.994C148.127 195.994 114.2 163.327 114.2 107.836C114.2 93.1563 117.054 78.4057 121.449 69.1464C124.312 62.7599 123.992 57.5449 121.072 54.2029C117.894 50.6746 112.306 49.7291 105.289 52.6318C64.369 69.9076 36.5913 111.965 36.5913 157.933C36.5913 221.469 85.5902 272.267 150.264 272.267ZM150.233 248.314C98.5009 248.314 60.5126 208.461 60.5126 158.394C60.5126 129.748 74.1195 104.343 95.5258 86.9644C93.1771 94.0896 91.9207 103.865 91.9207 113.282C91.9207 177.831 133.255 218.216 198.927 218.216C206.826 218.216 214.324 217.154 219.408 215.76C204.227 235.404 179.612 248.314 150.233 248.314Z" fill="black" fill-opacity="0.85"/>
 </g>
</svg>
