<?xml version="1.0" encoding="UTF-8"?>
<!--Generator: Apple Native CoreSVG 326-->
<!DOCTYPE svg
PUBLIC "-//W3C//DTD SVG 1.1//EN"
       "http://www.w3.org/Graphics/SVG/1.1/DTD/svg11.dtd">
<svg version="1.1" xmlns="http://www.w3.org/2000/svg" xmlns:xlink="http://www.w3.org/1999/xlink" viewBox="0 0 249.316 248.701">
 <g>
  <rect height="248.701" opacity="0" width="249.316" x="0" y="0"/>
  <path d="M185.716 248.603C206.974 248.603 222.15 242.255 235.777 227.643C236.621 226.697 237.433 225.854 238.245 224.846C245.583 216.737 249.316 208.077 249.316 200.144C249.316 191.001 244.66 182.487 233.94 175.145L201.634 152.987C191.279 145.836 182.113 145.41 170.439 151.22L151.675 160.542C147.205 162.775 143.539 163.334 138.665 159.863C132.722 155.886 120.412 145.841 110.886 136.283C101.736 126.965 92.9602 116.346 88.5881 109.262C86.4577 105.729 86.653 102.511 89.143 98.219L100.107 80.401C105.425 71.5061 106.193 61.5142 100.112 53.0226L73.6659 15.1021C66.5681 4.94134 57.7839 0.0985747 48.6447 0.000918407C40.6859-0.0656838 32.3009 3.48998 24.1289 10.73C23.25 11.5113 22.3089 12.3236 21.4566 13.0783C6.56912 26.9446 0 41.8415 0 64.9579C0 101.663 21.4496 145.137 62.8457 186.192C104.175 227.082 147.179 248.603 185.716 248.603ZM185.566 228.749C153.468 229.145 113.748 207.091 77.9187 171.639C41.9873 136.053 19.7066 95.3743 20.1017 63.9907C20.2659 49.7464 25.2109 37.8188 34.7726 29.3268C35.6115 28.519 36.4148 27.8755 37.3202 27.1964C41.1202 23.8801 45.1156 22.1399 48.7113 22.1399C52.4933 22.1399 55.8447 23.769 58.4193 27.6797L80.6898 60.7149C83.1843 64.3768 83.0246 67.9721 80.2281 72.7794L68.0607 92.901C63.2089 100.998 63.5509 108.312 68.9085 115.969C75.6644 125.677 85.9673 138.723 97.2685 150.029C109.843 162.417 124.407 174.415 132.433 179.676C140.152 184.714 147.76 185.757 158.076 180.688L177.666 171.184C183.276 168.401 187.786 168.272 192.553 171.42L221.331 190.592C225.3 193.162 226.835 196.482 226.835 200.233C226.835 203.864 225.193 207.86 221.779 211.691C221.069 212.596 220.425 213.333 219.684 214.269C211.125 223.898 199.131 228.585 185.566 228.749Z" fill="black"/>
 </g>
</svg>
