<?xml version="1.0" encoding="UTF-8"?>
<!--Generator: Apple Native CoreSVG 326-->
<!DOCTYPE svg
PUBLIC "-//W3C//DTD SVG 1.1//EN"
       "http://www.w3.org/Graphics/SVG/1.1/DTD/svg11.dtd">
<svg version="1.1" xmlns="http://www.w3.org/2000/svg" xmlns:xlink="http://www.w3.org/1999/xlink" viewBox="0 0 282.495 282.966">
 <g>
  <rect height="282.966" opacity="0" width="282.495" x="0" y="0"/>
  <path d="M141.199 51.1649C147.958 51.1649 153.457 45.5994 153.457 38.9064L153.457 12.2896C153.457 5.59665 147.958 0 141.199 0C134.506 0 129.007 5.59665 129.007 12.2896L129.007 38.9064C129.007 45.5994 134.506 51.1649 141.199 51.1649ZM205.016 77.8647C209.686 82.4673 217.563 82.6005 222.361 77.7716L241.205 58.8966C245.874 54.1964 245.777 46.2519 241.081 41.4896C236.412 36.8871 228.534 36.8826 223.803 41.6138L204.892 60.5555C200.223 65.2246 200.321 73.1025 205.016 77.8647ZM231.428 141.434C231.428 148.096 236.993 153.595 243.655 153.595L270.205 153.595C276.898 153.595 282.495 148.096 282.495 141.434C282.495 134.741 276.898 129.176 270.205 129.176L243.655 129.176C236.993 129.176 231.428 134.741 231.428 141.434ZM204.892 205.128C200.29 209.828 200.254 217.741 205.016 222.437L223.958 241.347C228.658 246.017 236.536 245.821 241.267 241.157C245.901 236.456 245.936 228.579 241.174 223.914L222.233 205.034C217.532 200.432 209.655 200.463 204.892 205.128ZM141.199 231.703C134.506 231.703 129.007 237.202 129.007 243.864L129.007 270.512C129.007 277.24 134.506 282.802 141.199 282.802C147.958 282.802 153.457 277.24 153.457 270.512L153.457 243.864C153.457 237.202 147.958 231.703 141.199 231.703ZM77.5718 205.128C72.8095 200.463 64.834 200.432 60.1648 205.034L41.2898 223.847C36.5275 228.512 36.5631 236.39 41.099 241.059C45.8613 245.755 53.8058 245.95 58.4393 241.25L77.381 222.437C82.0456 217.741 82.1077 209.828 77.5718 205.128ZM51.0317 141.434C51.0317 134.741 45.4706 129.176 38.8088 129.176L12.2585 129.176C5.5656 129.176 0 134.741 0 141.434C0 148.096 5.5656 153.595 12.2585 153.595L38.8088 153.595C45.4706 153.595 51.0317 148.096 51.0317 141.434ZM77.381 77.8647C82.0456 73.2001 82.1077 65.158 77.5718 60.5555L58.6612 41.6138C54.0942 37.0158 46.1187 36.8871 41.4496 41.4896C36.7539 46.2519 36.6562 54.1964 41.2588 58.7989L60.0717 77.7716C64.8029 82.5028 72.6808 82.4673 77.381 77.8647Z" fill="black" fill-opacity="0.85"/>
  <path d="M141.199 207.084C177.45 207.084 206.915 177.655 206.915 141.434C206.915 105.182 177.45 75.7175 141.199 75.7175C104.947 75.7175 75.5488 105.182 75.5488 141.434C75.5488 177.655 104.947 207.084 141.199 207.084ZM141.199 183.846C117.72 183.846 98.7869 164.882 98.7869 141.434C98.7869 117.889 117.72 98.9246 141.199 98.9246C164.744 98.9246 183.677 117.889 183.677 141.434C183.677 164.882 164.744 183.846 141.199 183.846Z" fill="black" fill-opacity="0.85"/>
 </g>
</svg>
