<?xml version="1.0" encoding="UTF-8"?>
<!--Generator: Apple Native CoreSVG 326-->
<!DOCTYPE svg
PUBLIC "-//W3C//DTD SVG 1.1//EN"
       "http://www.w3.org/Graphics/SVG/1.1/DTD/svg11.dtd">
<svg version="1.1" xmlns="http://www.w3.org/2000/svg" xmlns:xlink="http://www.w3.org/1999/xlink" viewBox="0 0 260.55 221.792">
 <g>
  <rect height="221.792" opacity="0" width="260.55" x="0" y="0"/>
  <path d="M177.361 23.5271L248.873 23.6514C255.371 23.6824 260.55 18.3567 260.55 11.9212C260.55 5.36143 255.433 0.155404 248.873 0.0932963L177.361 0.00013423C170.832-0.0309198 165.719 5.33037 165.719 11.7969C165.719 18.1703 170.863 23.5271 177.361 23.5271ZM177.361 89.5428L248.873 89.6359C255.371 89.698 260.55 84.2746 260.55 77.8391C260.55 71.2794 255.433 66.0734 248.873 66.0423L177.361 65.9181C170.832 65.887 165.719 71.2483 165.719 77.7149C165.719 84.0883 170.863 89.5428 177.361 89.5428ZM11.6105 155.585L248.873 155.585C255.371 155.585 260.55 150.224 260.55 143.757C260.55 137.197 255.433 132.027 248.873 132.027L11.6105 132.027C5.04626 132.027 0 137.291 0 143.757C0 150.131 5.07731 155.585 11.6105 155.585ZM11.6105 221.503L248.873 221.503C255.371 221.503 260.55 216.208 260.55 209.773C260.55 203.146 255.433 197.945 248.873 197.945L11.6105 197.945C5.04626 197.945 0 203.208 0 209.773C0 216.115 5.07731 221.503 11.6105 221.503Z" fill="black" fill-opacity="0.85"/>
  <path d="M35.0623 95.235C51.6455 95.235 65.1882 83.4235 65.1882 66.3341C65.1882 50.0614 53.9136 38.8579 38.5951 38.8579C28.2566 38.8579 20.2623 44.1718 16.9158 54.8564L19.3037 55.8591C20.125 33.9743 35.0092 18.8993 56.0053 17.8386C60.7058 17.5811 64.2345 13.9638 64.2345 9.32979C64.2345 3.85245 59.574 0.496999 53.4531 0.496999C25.1463 0.496999 0.466216 24.3607 0.466216 56.2403C0.466216 79.8458 15.1322 95.235 35.0623 95.235ZM113.27 95.235C129.92 95.235 143.462 83.4235 143.462 66.3341C143.462 50.0614 132.254 38.8579 116.9 38.8579C106.531 38.8579 98.4388 44.1718 95.2255 54.8564L97.6444 55.8591C98.4347 33.9743 113.283 18.8016 134.182 17.8386C138.98 17.5811 142.54 13.9638 142.54 9.32979C142.54 3.85245 137.977 0.496999 131.727 0.496999C103.487 0.496999 78.7404 24.3607 78.7404 56.2403C78.7404 79.8458 93.4374 95.235 113.27 95.235Z" fill="black" fill-opacity="0.85"/>
 </g>
</svg>
