<?xml version="1.0" encoding="UTF-8"?>
<!--Generator: Apple Native CoreSVG 326-->
<!DOCTYPE svg
PUBLIC "-//W3C//DTD SVG 1.1//EN"
       "http://www.w3.org/Graphics/SVG/1.1/DTD/svg11.dtd">
<svg version="1.1" xmlns="http://www.w3.org/2000/svg" xmlns:xlink="http://www.w3.org/1999/xlink" viewBox="0 0 304.833 322.187">
 <g>
  <rect height="322.187" opacity="0" width="304.833" x="0" y="0"/>
  <path d="M184.786 26.8822L206.044 106.121C206.461 107.677 206.849 109.223 207.096 110.716C200.518 118.068 193.87 125.746 187.495 133.502C187.163 126.745 185.961 119.576 183.955 112.073L162.856 33.3177C160.659 25.0828 154.852 21.6378 146.644 23.8398L33.3887 54.1533C25.1181 56.3863 21.8019 62.2906 24.0349 70.4945L45.1287 149.25C57.4824 195.207 89.6877 215.271 134.122 203.437C139.793 201.899 145.031 200.01 149.813 197.775C149.657 198.912 149.578 200.057 149.538 201.21C140.469 202.595 132.083 206.989 125.212 214.691C120.586 219.638 117.933 224.634 116.402 229.472C70.6125 232.765 36.6323 205.961 23.0081 155.149L1.81669 75.8428C-4.21553 53.4717 4.90164 38.3934 27.2727 32.3967L141.043 1.85239C163.316-4.14427 178.754 4.47563 184.786 26.8822ZM165.119 135.08C164.44 155.446 150.169 172.43 127.552 178.525C104.967 184.522 84.0768 177.02 73.3611 159.681C70.0764 154.732 73.1258 150.799 78.0262 151.385C91.1035 153.307 105.442 150.701 119.047 147.057C132.719 143.444 146.436 138.441 156.903 130.286C160.765 127.268 165.505 129.221 165.119 135.08ZM90.2561 103.191C91.3924 107.422 90.3447 110.445 87.7791 111.128C84.3967 112.007 80.4194 108.132 72.4205 110.245C64.4217 112.424 62.9524 117.831 59.6676 118.741C57.102 119.424 54.5895 117.28 53.5153 113.117C50.7809 102.925 56.8356 92.8088 67.0539 90.0744C77.3033 87.34 87.6194 93.0662 90.2561 103.191ZM158.984 84.7965C160.156 89.0268 159.011 92.1162 156.476 92.8308C153.094 93.7098 149.116 89.6392 141.117 91.8187C133.15 93.9316 131.649 99.4359 128.364 100.279C125.732 100.963 123.22 98.8545 122.114 94.6242C119.38 84.5967 125.564 74.4449 135.751 71.7461C146 69.0117 156.316 74.6713 158.984 84.7965Z" fill="black" fill-opacity="0.85"/>
  <path d="M89.1598 295.704C116.114 322.332 168.939 322.46 195.119 294.282C209.589 278.942 214.836 260.516 210.325 243.364C221.698 239.023 230.771 230.643 240.186 217.317C269.143 175.891 295.565 103.65 302.754 82.1062C312.488 54.4356 285.874 33.7337 262.393 53.7299C255.358 59.8247 196.616 117.08 164.061 164.079C154.744 177.431 149.972 188.936 149.538 201.21C140.469 202.595 132.083 206.989 125.212 214.691C107.914 233.187 118.203 252.376 109.782 261.663C102.086 269.826 92.5994 267.558 86.4074 274.314C81.6537 279.724 81.4229 287.932 89.1598 295.704ZM172.018 203.434C171.738 195.616 175.098 187.142 182.409 176.923C212.333 134.649 264.726 82.883 272.914 74.5929C276.745 70.5616 282.237 74.3665 279.955 79.5566C276.014 90.0299 251.096 162.506 221.705 204.473C213.928 215.615 207.353 220.928 199.767 223.299C196.699 219.246 192.877 215.384 188.327 212.01C183.164 208.157 177.576 205.187 172.018 203.434ZM221.23 211.364L238.664 203.424C233.199 178.412 203.655 157.377 178.593 160.288L175.646 179.874C193.251 176.359 218.123 193.627 221.23 211.364ZM179.455 231.654C194.397 244.558 193.558 263.798 179.594 279.321C163.888 297.379 135.309 301.628 116.038 288.092C113.836 286.44 113.481 284.403 114.626 282.933C116.198 280.736 122.48 279.799 126.427 274.241C137.616 259.167 130.026 243.427 141.106 230.864C150.663 219.886 166.369 220.334 179.455 231.654Z" fill="black" fill-opacity="0.85"/>
 </g>
</svg>
